<svg xmlns="http://www.w3.org/2000/svg" viewBox="0 0 24 24"><path fill="currentColor" d="M3.75 5.25A2.75 2.75 0 0 1 6.5 2.5h3.07c.86 0 1.67.4 2.2 1.08l1.08 1.42h4.65A2.75 2.75 0 0 1 20.25 7.75v1H3.75v-3.5Z"/><path fill="currentColor" d="M2.25 10.25A2.75 2.75 0 0 1 5 7.5h14a2.75 2.75 0 0 1 2.75 2.75v6.5A3.25 3.25 0 0 1 18.5 20H5.5a3.25 3.25 0 0 1-3.25-3.25v-6.5Zm9.18 1.18-2.2 2.2a.75.75 0 0 0 .53 1.28h1.49v2.34a.75.75 0 0 0 1.5 0v-2.34h1.49a.75.75 0 0 0 .53-1.28l-2.2-2.2a.8.8 0 0 0-1.14 0Z"/></svg>
